<svg width="1200" height="600" viewBox="0 0 1200 600" fill="none" xmlns="http://www.w3.org/2000/svg">
    <rect width="1200" height="600" fill="#1E1E1E"/>
    <g id="poll">
        <rect width="1200" height="600" rx="10" fill="white" fill-opacity="0.04"/>
        <g id="topic" style="mix-blend-mode:difference">
            <path d="M56.4318 49.794V45.8182H77.321V49.794H69.2287V72H64.5241V49.794H56.4318ZM86.989 72.3835C85.0202 72.3835 83.32 71.9744 81.8881 71.1562C80.4648 70.3295 79.3697 69.1619 78.6026 67.6534C77.8356 66.1364 77.4521 64.3509 77.4521 62.2969C77.4521 60.277 77.8356 58.5043 78.6026 56.9787C79.3782 55.4446 80.4606 54.2514 81.8498 53.3991C83.239 52.5384 84.8711 52.108 86.7461 52.108C87.9563 52.108 89.0984 52.304 90.1722 52.696C91.2546 53.0795 92.2092 53.6761 93.0359 54.4858C93.8711 55.2955 94.5273 56.3267 95.0046 57.5795C95.4819 58.8239 95.7205 60.3068 95.7205 62.0284V63.4474H79.6254V60.3281H91.2844C91.2759 59.4418 91.0842 58.6534 90.7092 57.9631C90.3342 57.2642 89.81 56.7145 89.1367 56.3139C88.4719 55.9134 87.6964 55.7131 86.81 55.7131C85.864 55.7131 85.033 55.9432 84.3171 56.4034C83.6012 56.8551 83.043 57.4517 82.6424 58.1932C82.2504 58.9261 82.0501 59.7315 82.0415 60.6094V63.3324C82.0415 64.4744 82.2504 65.4545 82.668 66.2727C83.0856 67.0824 83.6694 67.7045 84.4194 68.1392C85.1694 68.5653 86.0472 68.7784 87.0529 68.7784C87.7262 68.7784 88.3356 68.6847 88.881 68.4972C89.4265 68.3011 89.8995 68.0156 90.3001 67.6406C90.7006 67.2656 91.0032 66.8011 91.2077 66.2472L95.5288 66.733C95.256 67.875 94.7362 68.8722 93.9691 69.7244C93.2106 70.5682 92.239 71.2244 91.0543 71.6932C89.8697 72.1534 88.5146 72.3835 86.989 72.3835ZM102.998 52.3636L106.961 59.6122L110.988 52.3636H115.884L109.965 62.1818L115.987 72H111.116L106.961 64.9304L102.844 72H97.9354L103.918 62.1818L98.0888 52.3636H102.998ZM129.269 52.3636V55.9432H117.981V52.3636H129.269ZM120.768 47.6591H125.396V66.0938C125.396 66.7159 125.489 67.1932 125.677 67.5256C125.873 67.8494 126.129 68.071 126.444 68.1903C126.759 68.3097 127.109 68.3693 127.492 68.3693C127.782 68.3693 128.046 68.348 128.285 68.3054C128.532 68.2628 128.719 68.2244 128.847 68.1903L129.627 71.8082C129.38 71.8935 129.026 71.9872 128.566 72.0895C128.114 72.1918 127.56 72.2514 126.904 72.2685C125.745 72.3026 124.701 72.1278 123.772 71.7443C122.843 71.3523 122.106 70.7472 121.56 69.929C121.023 69.1108 120.759 68.0881 120.768 66.8608V47.6591Z"
                  fill="white"/>
        </g>
        <g id="poll 1">
            <rect id="progress" x="55" y="126" width="1090" height="90" rx="12" fill="#D9D9D9"/>
            <g id="label" style="mix-blend-mode:difference">
                <path d="M76.4318 159.794V155.818H97.321V159.794H89.2287V182H84.5241V159.794H76.4318ZM106.989 182.384C105.02 182.384 103.32 181.974 101.888 181.156C100.465 180.33 99.3697 179.162 98.6026 177.653C97.8356 176.136 97.4521 174.351 97.4521 172.297C97.4521 170.277 97.8356 168.504 98.6026 166.979C99.3782 165.445 100.461 164.251 101.85 163.399C103.239 162.538 104.871 162.108 106.746 162.108C107.956 162.108 109.098 162.304 110.172 162.696C111.255 163.08 112.209 163.676 113.036 164.486C113.871 165.295 114.527 166.327 115.005 167.58C115.482 168.824 115.721 170.307 115.721 172.028V173.447H99.6254V170.328H111.284C111.276 169.442 111.084 168.653 110.709 167.963C110.334 167.264 109.81 166.714 109.137 166.314C108.472 165.913 107.696 165.713 106.81 165.713C105.864 165.713 105.033 165.943 104.317 166.403C103.601 166.855 103.043 167.452 102.642 168.193C102.25 168.926 102.05 169.732 102.042 170.609V173.332C102.042 174.474 102.25 175.455 102.668 176.273C103.086 177.082 103.669 177.705 104.419 178.139C105.169 178.565 106.047 178.778 107.053 178.778C107.726 178.778 108.336 178.685 108.881 178.497C109.426 178.301 109.9 178.016 110.3 177.641C110.701 177.266 111.003 176.801 111.208 176.247L115.529 176.733C115.256 177.875 114.736 178.872 113.969 179.724C113.211 180.568 112.239 181.224 111.054 181.693C109.87 182.153 108.515 182.384 106.989 182.384ZM122.998 162.364L126.961 169.612L130.988 162.364H135.884L129.965 172.182L135.987 182H131.116L126.961 174.93L122.844 182H117.935L123.918 172.182L118.089 162.364H122.998ZM149.269 162.364V165.943H137.981V162.364H149.269ZM140.768 157.659H145.396V176.094C145.396 176.716 145.489 177.193 145.677 177.526C145.873 177.849 146.129 178.071 146.444 178.19C146.759 178.31 147.109 178.369 147.492 178.369C147.782 178.369 148.046 178.348 148.285 178.305C148.532 178.263 148.719 178.224 148.847 178.19L149.627 181.808C149.38 181.893 149.026 181.987 148.566 182.089C148.114 182.192 147.56 182.251 146.904 182.268C145.745 182.303 144.701 182.128 143.772 181.744C142.843 181.352 142.106 180.747 141.56 179.929C141.023 179.111 140.759 178.088 140.768 176.861V157.659Z"
                      fill="white"/>
            </g>
            <g id="percentage" style="mix-blend-mode:difference">
                <path d="M1052.98 155.818V182H1048.23V160.433H1048.08L1041.96 164.345V159.999L1048.46 155.818H1052.98ZM1069.3 182.499C1067.2 182.499 1065.39 181.966 1063.88 180.901C1062.38 179.827 1061.23 178.28 1060.42 176.26C1059.62 174.232 1059.21 171.79 1059.21 168.935C1059.22 166.08 1059.63 163.651 1060.43 161.648C1061.24 159.636 1062.39 158.102 1063.89 157.045C1065.4 155.989 1067.2 155.46 1069.3 155.46C1071.4 155.46 1073.2 155.989 1074.71 157.045C1076.22 158.102 1077.37 159.636 1078.17 161.648C1078.98 163.659 1079.39 166.088 1079.39 168.935C1079.39 171.798 1078.98 174.244 1078.17 176.273C1077.37 178.293 1076.22 179.835 1074.71 180.901C1073.21 181.966 1071.41 182.499 1069.3 182.499ZM1069.3 178.497C1070.94 178.497 1072.23 177.692 1073.17 176.081C1074.13 174.462 1074.61 172.08 1074.61 168.935C1074.61 166.855 1074.39 165.108 1073.95 163.693C1073.52 162.278 1072.91 161.213 1072.11 160.497C1071.32 159.773 1070.38 159.411 1069.3 159.411C1067.67 159.411 1066.39 160.22 1065.44 161.839C1064.49 163.45 1064.02 165.815 1064.01 168.935C1064 171.023 1064.21 172.778 1064.63 174.202C1065.07 175.625 1065.68 176.699 1066.48 177.423C1067.27 178.139 1068.21 178.497 1069.3 178.497ZM1097.63 177.091V175.71C1097.63 174.696 1097.85 173.763 1098.27 172.911C1098.71 172.058 1099.34 171.372 1100.17 170.852C1100.99 170.332 1101.99 170.072 1103.17 170.072C1104.38 170.072 1105.39 170.332 1106.21 170.852C1107.03 171.364 1107.65 172.045 1108.07 172.898C1108.49 173.75 1108.7 174.687 1108.7 175.71V177.091C1108.7 178.105 1108.49 179.038 1108.07 179.891C1107.64 180.743 1107.01 181.429 1106.19 181.949C1105.37 182.469 1104.36 182.729 1103.17 182.729C1101.98 182.729 1100.97 182.469 1100.14 181.949C1099.31 181.429 1098.69 180.743 1098.26 179.891C1097.84 179.038 1097.63 178.105 1097.63 177.091ZM1100.97 175.71V177.091C1100.97 177.764 1101.13 178.382 1101.46 178.945C1101.78 179.507 1102.35 179.788 1103.17 179.788C1104 179.788 1104.56 179.511 1104.87 178.957C1105.19 178.395 1105.34 177.773 1105.34 177.091V175.71C1105.34 175.028 1105.19 174.406 1104.9 173.844C1104.6 173.273 1104.02 172.987 1103.17 172.987C1102.37 172.987 1101.8 173.273 1101.47 173.844C1101.14 174.406 1100.97 175.028 1100.97 175.71ZM1084.33 162.108V160.727C1084.33 159.705 1084.54 158.767 1084.98 157.915C1085.41 157.062 1086.04 156.381 1086.87 155.869C1087.7 155.349 1088.7 155.089 1089.87 155.089C1091.08 155.089 1092.09 155.349 1092.9 155.869C1093.73 156.381 1094.35 157.062 1094.77 157.915C1095.19 158.767 1095.4 159.705 1095.4 160.727V162.108C1095.4 163.131 1095.18 164.068 1094.76 164.92C1094.34 165.764 1093.72 166.442 1092.89 166.953C1092.06 167.464 1091.06 167.72 1089.87 167.72C1088.67 167.72 1087.66 167.464 1086.83 166.953C1086.01 166.442 1085.39 165.76 1084.96 164.908C1084.54 164.055 1084.33 163.122 1084.33 162.108ZM1087.69 160.727V162.108C1087.69 162.79 1087.85 163.412 1088.16 163.974C1088.48 164.528 1089.06 164.805 1089.87 164.805C1090.69 164.805 1091.25 164.528 1091.56 163.974C1091.88 163.412 1092.03 162.79 1092.03 162.108V160.727C1092.03 160.045 1091.89 159.423 1091.59 158.861C1091.29 158.29 1090.72 158.004 1089.87 158.004C1089.06 158.004 1088.5 158.29 1088.17 158.861C1087.85 159.432 1087.69 160.054 1087.69 160.727ZM1085.78 182L1103.78 155.818H1106.98L1088.98 182H1085.78Z"
                      fill="white"/>
            </g>
        </g>
        <g id="poll 4">
            <rect id="progress_2" x="55" y="462" width="1090" height="90" rx="12" fill="#D9D9D9"/>
            <g id="label_2" style="mix-blend-mode:difference">
                <path d="M76.4318 495.794V491.818H97.321V495.794H89.2287V518H84.5241V495.794H76.4318ZM106.989 518.384C105.02 518.384 103.32 517.974 101.888 517.156C100.465 516.33 99.3697 515.162 98.6026 513.653C97.8356 512.136 97.4521 510.351 97.4521 508.297C97.4521 506.277 97.8356 504.504 98.6026 502.979C99.3782 501.445 100.461 500.251 101.85 499.399C103.239 498.538 104.871 498.108 106.746 498.108C107.956 498.108 109.098 498.304 110.172 498.696C111.255 499.08 112.209 499.676 113.036 500.486C113.871 501.295 114.527 502.327 115.005 503.58C115.482 504.824 115.721 506.307 115.721 508.028V509.447H99.6254V506.328H111.284C111.276 505.442 111.084 504.653 110.709 503.963C110.334 503.264 109.81 502.714 109.137 502.314C108.472 501.913 107.696 501.713 106.81 501.713C105.864 501.713 105.033 501.943 104.317 502.403C103.601 502.855 103.043 503.452 102.642 504.193C102.25 504.926 102.05 505.732 102.042 506.609V509.332C102.042 510.474 102.25 511.455 102.668 512.273C103.086 513.082 103.669 513.705 104.419 514.139C105.169 514.565 106.047 514.778 107.053 514.778C107.726 514.778 108.336 514.685 108.881 514.497C109.426 514.301 109.9 514.016 110.3 513.641C110.701 513.266 111.003 512.801 111.208 512.247L115.529 512.733C115.256 513.875 114.736 514.872 113.969 515.724C113.211 516.568 112.239 517.224 111.054 517.693C109.87 518.153 108.515 518.384 106.989 518.384ZM122.998 498.364L126.961 505.612L130.988 498.364H135.884L129.965 508.182L135.987 518H131.116L126.961 510.93L122.844 518H117.935L123.918 508.182L118.089 498.364H122.998ZM149.269 498.364V501.943H137.981V498.364H149.269ZM140.768 493.659H145.396V512.094C145.396 512.716 145.489 513.193 145.677 513.526C145.873 513.849 146.129 514.071 146.444 514.19C146.759 514.31 147.109 514.369 147.492 514.369C147.782 514.369 148.046 514.348 148.285 514.305C148.532 514.263 148.719 514.224 148.847 514.19L149.627 517.808C149.38 517.893 149.026 517.987 148.566 518.089C148.114 518.192 147.56 518.251 146.904 518.268C145.745 518.303 144.701 518.128 143.772 517.744C142.843 517.352 142.106 516.747 141.56 515.929C141.023 515.111 140.759 514.088 140.768 512.861V493.659Z"
                      fill="white"/>
            </g>
            <g id="percentage_2" style="mix-blend-mode:difference">
                <path d="M1052.98 491.818V518H1048.23V496.433H1048.08L1041.96 500.345V495.999L1048.46 491.818H1052.98ZM1069.3 518.499C1067.2 518.499 1065.39 517.966 1063.88 516.901C1062.38 515.827 1061.23 514.28 1060.42 512.26C1059.62 510.232 1059.21 507.79 1059.21 504.935C1059.22 502.08 1059.63 499.651 1060.43 497.648C1061.24 495.636 1062.39 494.102 1063.89 493.045C1065.4 491.989 1067.2 491.46 1069.3 491.46C1071.4 491.46 1073.2 491.989 1074.71 493.045C1076.22 494.102 1077.37 495.636 1078.17 497.648C1078.98 499.659 1079.39 502.088 1079.39 504.935C1079.39 507.798 1078.98 510.244 1078.17 512.273C1077.37 514.293 1076.22 515.835 1074.71 516.901C1073.21 517.966 1071.41 518.499 1069.3 518.499ZM1069.3 514.497C1070.94 514.497 1072.23 513.692 1073.17 512.081C1074.13 510.462 1074.61 508.08 1074.61 504.935C1074.61 502.855 1074.39 501.108 1073.95 499.693C1073.52 498.278 1072.91 497.213 1072.11 496.497C1071.32 495.773 1070.38 495.411 1069.3 495.411C1067.67 495.411 1066.39 496.22 1065.44 497.839C1064.49 499.45 1064.02 501.815 1064.01 504.935C1064 507.023 1064.21 508.778 1064.63 510.202C1065.07 511.625 1065.68 512.699 1066.48 513.423C1067.27 514.139 1068.21 514.497 1069.3 514.497ZM1097.63 513.091V511.71C1097.63 510.696 1097.85 509.763 1098.27 508.911C1098.71 508.058 1099.34 507.372 1100.17 506.852C1100.99 506.332 1101.99 506.072 1103.17 506.072C1104.38 506.072 1105.39 506.332 1106.21 506.852C1107.03 507.364 1107.65 508.045 1108.07 508.898C1108.49 509.75 1108.7 510.687 1108.7 511.71V513.091C1108.7 514.105 1108.49 515.038 1108.07 515.891C1107.64 516.743 1107.01 517.429 1106.19 517.949C1105.37 518.469 1104.36 518.729 1103.17 518.729C1101.98 518.729 1100.97 518.469 1100.14 517.949C1099.31 517.429 1098.69 516.743 1098.26 515.891C1097.84 515.038 1097.63 514.105 1097.63 513.091ZM1100.97 511.71V513.091C1100.97 513.764 1101.13 514.382 1101.46 514.945C1101.78 515.507 1102.35 515.788 1103.17 515.788C1104 515.788 1104.56 515.511 1104.87 514.957C1105.19 514.395 1105.34 513.773 1105.34 513.091V511.71C1105.34 511.028 1105.19 510.406 1104.9 509.844C1104.6 509.273 1104.02 508.987 1103.17 508.987C1102.37 508.987 1101.8 509.273 1101.47 509.844C1101.14 510.406 1100.97 511.028 1100.97 511.71ZM1084.33 498.108V496.727C1084.33 495.705 1084.54 494.767 1084.98 493.915C1085.41 493.062 1086.04 492.381 1086.87 491.869C1087.7 491.349 1088.7 491.089 1089.87 491.089C1091.08 491.089 1092.09 491.349 1092.9 491.869C1093.73 492.381 1094.35 493.062 1094.77 493.915C1095.19 494.767 1095.4 495.705 1095.4 496.727V498.108C1095.4 499.131 1095.18 500.068 1094.76 500.92C1094.34 501.764 1093.72 502.442 1092.89 502.953C1092.06 503.464 1091.06 503.72 1089.87 503.72C1088.67 503.72 1087.66 503.464 1086.83 502.953C1086.01 502.442 1085.39 501.76 1084.96 500.908C1084.54 500.055 1084.33 499.122 1084.33 498.108ZM1087.69 496.727V498.108C1087.69 498.79 1087.85 499.412 1088.16 499.974C1088.48 500.528 1089.06 500.805 1089.87 500.805C1090.69 500.805 1091.25 500.528 1091.56 499.974C1091.88 499.412 1092.03 498.79 1092.03 498.108V496.727C1092.03 496.045 1091.89 495.423 1091.59 494.861C1091.29 494.29 1090.72 494.004 1089.87 494.004C1089.06 494.004 1088.5 494.29 1088.17 494.861C1087.85 495.432 1087.69 496.054 1087.69 496.727ZM1085.78 518L1103.78 491.818H1106.98L1088.98 518H1085.78Z"
                      fill="white"/>
            </g>
        </g>
        <g id="poll 3">
            <rect id="progress_3" x="55" y="350" width="1090" height="90" rx="12" fill="#D9D9D9"/>
            <g id="label_3" style="mix-blend-mode:difference">
                <path d="M76.4318 383.794V379.818H97.321V383.794H89.2287V406H84.5241V383.794H76.4318ZM106.989 406.384C105.02 406.384 103.32 405.974 101.888 405.156C100.465 404.33 99.3697 403.162 98.6026 401.653C97.8356 400.136 97.4521 398.351 97.4521 396.297C97.4521 394.277 97.8356 392.504 98.6026 390.979C99.3782 389.445 100.461 388.251 101.85 387.399C103.239 386.538 104.871 386.108 106.746 386.108C107.956 386.108 109.098 386.304 110.172 386.696C111.255 387.08 112.209 387.676 113.036 388.486C113.871 389.295 114.527 390.327 115.005 391.58C115.482 392.824 115.721 394.307 115.721 396.028V397.447H99.6254V394.328H111.284C111.276 393.442 111.084 392.653 110.709 391.963C110.334 391.264 109.81 390.714 109.137 390.314C108.472 389.913 107.696 389.713 106.81 389.713C105.864 389.713 105.033 389.943 104.317 390.403C103.601 390.855 103.043 391.452 102.642 392.193C102.25 392.926 102.05 393.732 102.042 394.609V397.332C102.042 398.474 102.25 399.455 102.668 400.273C103.086 401.082 103.669 401.705 104.419 402.139C105.169 402.565 106.047 402.778 107.053 402.778C107.726 402.778 108.336 402.685 108.881 402.497C109.426 402.301 109.9 402.016 110.3 401.641C110.701 401.266 111.003 400.801 111.208 400.247L115.529 400.733C115.256 401.875 114.736 402.872 113.969 403.724C113.211 404.568 112.239 405.224 111.054 405.693C109.87 406.153 108.515 406.384 106.989 406.384ZM122.998 386.364L126.961 393.612L130.988 386.364H135.884L129.965 396.182L135.987 406H131.116L126.961 398.93L122.844 406H117.935L123.918 396.182L118.089 386.364H122.998ZM149.269 386.364V389.943H137.981V386.364H149.269ZM140.768 381.659H145.396V400.094C145.396 400.716 145.489 401.193 145.677 401.526C145.873 401.849 146.129 402.071 146.444 402.19C146.759 402.31 147.109 402.369 147.492 402.369C147.782 402.369 148.046 402.348 148.285 402.305C148.532 402.263 148.719 402.224 148.847 402.19L149.627 405.808C149.38 405.893 149.026 405.987 148.566 406.089C148.114 406.192 147.56 406.251 146.904 406.268C145.745 406.303 144.701 406.128 143.772 405.744C142.843 405.352 142.106 404.747 141.56 403.929C141.023 403.111 140.759 402.088 140.768 400.861V381.659Z"
                      fill="white"/>
            </g>
            <g id="percentage_3" style="mix-blend-mode:difference">
                <path d="M1052.98 379.818V406H1048.23V384.433H1048.08L1041.96 388.345V383.999L1048.46 379.818H1052.98ZM1069.3 406.499C1067.2 406.499 1065.39 405.966 1063.88 404.901C1062.38 403.827 1061.23 402.28 1060.42 400.26C1059.62 398.232 1059.21 395.79 1059.21 392.935C1059.22 390.08 1059.63 387.651 1060.43 385.648C1061.24 383.636 1062.39 382.102 1063.89 381.045C1065.4 379.989 1067.2 379.46 1069.3 379.46C1071.4 379.46 1073.2 379.989 1074.71 381.045C1076.22 382.102 1077.37 383.636 1078.17 385.648C1078.98 387.659 1079.39 390.088 1079.39 392.935C1079.39 395.798 1078.98 398.244 1078.17 400.273C1077.37 402.293 1076.22 403.835 1074.71 404.901C1073.21 405.966 1071.41 406.499 1069.3 406.499ZM1069.3 402.497C1070.94 402.497 1072.23 401.692 1073.17 400.081C1074.13 398.462 1074.61 396.08 1074.61 392.935C1074.61 390.855 1074.39 389.108 1073.95 387.693C1073.52 386.278 1072.91 385.213 1072.11 384.497C1071.32 383.773 1070.38 383.411 1069.3 383.411C1067.67 383.411 1066.39 384.22 1065.44 385.839C1064.49 387.45 1064.02 389.815 1064.01 392.935C1064 395.023 1064.21 396.778 1064.63 398.202C1065.07 399.625 1065.68 400.699 1066.48 401.423C1067.27 402.139 1068.21 402.497 1069.3 402.497ZM1097.63 401.091V399.71C1097.63 398.696 1097.85 397.763 1098.27 396.911C1098.71 396.058 1099.34 395.372 1100.17 394.852C1100.99 394.332 1101.99 394.072 1103.17 394.072C1104.38 394.072 1105.39 394.332 1106.21 394.852C1107.03 395.364 1107.65 396.045 1108.07 396.898C1108.49 397.75 1108.7 398.687 1108.7 399.71V401.091C1108.7 402.105 1108.49 403.038 1108.07 403.891C1107.64 404.743 1107.01 405.429 1106.19 405.949C1105.37 406.469 1104.36 406.729 1103.17 406.729C1101.98 406.729 1100.97 406.469 1100.14 405.949C1099.31 405.429 1098.69 404.743 1098.26 403.891C1097.84 403.038 1097.63 402.105 1097.63 401.091ZM1100.97 399.71V401.091C1100.97 401.764 1101.13 402.382 1101.46 402.945C1101.78 403.507 1102.35 403.788 1103.17 403.788C1104 403.788 1104.56 403.511 1104.87 402.957C1105.19 402.395 1105.34 401.773 1105.34 401.091V399.71C1105.34 399.028 1105.19 398.406 1104.9 397.844C1104.6 397.273 1104.02 396.987 1103.17 396.987C1102.37 396.987 1101.8 397.273 1101.47 397.844C1101.14 398.406 1100.97 399.028 1100.97 399.71ZM1084.33 386.108V384.727C1084.33 383.705 1084.54 382.767 1084.98 381.915C1085.41 381.062 1086.04 380.381 1086.87 379.869C1087.7 379.349 1088.7 379.089 1089.87 379.089C1091.08 379.089 1092.09 379.349 1092.9 379.869C1093.73 380.381 1094.35 381.062 1094.77 381.915C1095.19 382.767 1095.4 383.705 1095.4 384.727V386.108C1095.4 387.131 1095.18 388.068 1094.76 388.92C1094.34 389.764 1093.72 390.442 1092.89 390.953C1092.06 391.464 1091.06 391.72 1089.87 391.72C1088.67 391.72 1087.66 391.464 1086.83 390.953C1086.01 390.442 1085.39 389.76 1084.96 388.908C1084.54 388.055 1084.33 387.122 1084.33 386.108ZM1087.69 384.727V386.108C1087.69 386.79 1087.85 387.412 1088.16 387.974C1088.48 388.528 1089.06 388.805 1089.87 388.805C1090.69 388.805 1091.25 388.528 1091.56 387.974C1091.88 387.412 1092.03 386.79 1092.03 386.108V384.727C1092.03 384.045 1091.89 383.423 1091.59 382.861C1091.29 382.29 1090.72 382.004 1089.87 382.004C1089.06 382.004 1088.5 382.29 1088.17 382.861C1087.85 383.432 1087.69 384.054 1087.69 384.727ZM1085.78 406L1103.78 379.818H1106.98L1088.98 406H1085.78Z"
                      fill="white"/>
            </g>
        </g>
        <g id="poll 2">
            <rect id="progress_4" x="55" y="238" width="1090" height="90" rx="12" fill="#D9D9D9"/>
            <g id="label_4" style="mix-blend-mode:difference" filter="url(#filter0_d_0_1)">
                <path d="M76.4318 271.794V267.818H97.321V271.794H89.2287V294H84.5241V271.794H76.4318ZM106.989 294.384C105.02 294.384 103.32 293.974 101.888 293.156C100.465 292.33 99.3697 291.162 98.6026 289.653C97.8356 288.136 97.4521 286.351 97.4521 284.297C97.4521 282.277 97.8356 280.504 98.6026 278.979C99.3782 277.445 100.461 276.251 101.85 275.399C103.239 274.538 104.871 274.108 106.746 274.108C107.956 274.108 109.098 274.304 110.172 274.696C111.255 275.08 112.209 275.676 113.036 276.486C113.871 277.295 114.527 278.327 115.005 279.58C115.482 280.824 115.721 282.307 115.721 284.028V285.447H99.6254V282.328H111.284C111.276 281.442 111.084 280.653 110.709 279.963C110.334 279.264 109.81 278.714 109.137 278.314C108.472 277.913 107.696 277.713 106.81 277.713C105.864 277.713 105.033 277.943 104.317 278.403C103.601 278.855 103.043 279.452 102.642 280.193C102.25 280.926 102.05 281.732 102.042 282.609V285.332C102.042 286.474 102.25 287.455 102.668 288.273C103.086 289.082 103.669 289.705 104.419 290.139C105.169 290.565 106.047 290.778 107.053 290.778C107.726 290.778 108.336 290.685 108.881 290.497C109.426 290.301 109.9 290.016 110.3 289.641C110.701 289.266 111.003 288.801 111.208 288.247L115.529 288.733C115.256 289.875 114.736 290.872 113.969 291.724C113.211 292.568 112.239 293.224 111.054 293.693C109.87 294.153 108.515 294.384 106.989 294.384ZM122.998 274.364L126.961 281.612L130.988 274.364H135.884L129.965 284.182L135.987 294H131.116L126.961 286.93L122.844 294H117.935L123.918 284.182L118.089 274.364H122.998ZM149.269 274.364V277.943H137.981V274.364H149.269ZM140.768 269.659H145.396V288.094C145.396 288.716 145.489 289.193 145.677 289.526C145.873 289.849 146.129 290.071 146.444 290.19C146.759 290.31 147.109 290.369 147.492 290.369C147.782 290.369 148.046 290.348 148.285 290.305C148.532 290.263 148.719 290.224 148.847 290.19L149.627 293.808C149.38 293.893 149.026 293.987 148.566 294.089C148.114 294.192 147.56 294.251 146.904 294.268C145.745 294.303 144.701 294.128 143.772 293.744C142.843 293.352 142.106 292.747 141.56 291.929C141.023 291.111 140.759 290.088 140.768 288.861V269.659Z"
                      fill="white"/>
                <path d="M76.4318 271.794H75.4318V272.794H76.4318V271.794ZM76.4318 267.818V266.818H75.4318V267.818H76.4318ZM97.321 267.818H98.321V266.818H97.321V267.818ZM97.321 271.794V272.794H98.321V271.794H97.321ZM89.2287 271.794V270.794H88.2287V271.794H89.2287ZM89.2287 294V295H90.2287V294H89.2287ZM84.5241 294H83.5241V295H84.5241V294ZM84.5241 271.794H85.5241V270.794H84.5241V271.794ZM77.4318 271.794V267.818H75.4318V271.794H77.4318ZM76.4318 268.818H97.321V266.818H76.4318V268.818ZM96.321 267.818V271.794H98.321V267.818H96.321ZM97.321 270.794H89.2287V272.794H97.321V270.794ZM88.2287 271.794V294H90.2287V271.794H88.2287ZM89.2287 293H84.5241V295H89.2287V293ZM85.5241 294V271.794H83.5241V294H85.5241ZM84.5241 270.794H76.4318V272.794H84.5241V270.794ZM101.888 293.156L101.386 294.021L101.392 294.024L101.888 293.156ZM98.6026 289.653L97.7102 290.105L97.7112 290.107L98.6026 289.653ZM98.6026 278.979L97.7102 278.528L97.7092 278.529L98.6026 278.979ZM101.85 275.399L102.373 276.252L102.377 276.249L101.85 275.399ZM110.172 274.696L109.829 275.635L109.838 275.639L110.172 274.696ZM113.036 276.486L112.336 277.2L112.34 277.204L113.036 276.486ZM115.005 279.58L114.07 279.936L114.071 279.938L115.005 279.58ZM115.721 285.447V286.447H116.721V285.447H115.721ZM99.6254 285.447H98.6254V286.447H99.6254V285.447ZM99.6254 282.328V281.328H98.6254V282.328H99.6254ZM111.284 282.328V283.328H112.294L112.284 282.319L111.284 282.328ZM110.709 279.963L109.828 280.436L109.83 280.44L110.709 279.963ZM109.137 278.314L108.621 279.17L108.625 279.173L109.137 278.314ZM104.317 278.403L104.851 279.249L104.858 279.245L104.317 278.403ZM102.642 280.193L101.763 279.718L101.761 279.722L102.642 280.193ZM102.042 282.609L101.042 282.6V282.609H102.042ZM102.668 288.273L101.777 288.727L101.779 288.731L102.668 288.273ZM104.419 290.139L103.918 291.004L103.925 291.009L104.419 290.139ZM108.881 290.497L109.206 291.443L109.219 291.438L108.881 290.497ZM111.208 288.247L111.319 287.253L110.541 287.166L110.27 287.901L111.208 288.247ZM115.529 288.733L116.501 288.965L116.764 287.866L115.64 287.739L115.529 288.733ZM113.969 291.724L113.226 291.055L113.225 291.056L113.969 291.724ZM111.054 293.693L111.416 294.625L111.422 294.623L111.054 293.693ZM106.989 293.384C105.16 293.384 103.638 293.005 102.384 292.288L101.392 294.024C103.002 294.944 104.88 295.384 106.989 295.384V293.384ZM102.39 292.292C101.139 291.564 100.176 290.542 99.494 289.2L97.7112 290.107C98.563 291.782 99.791 293.095 101.386 294.021L102.39 292.292ZM99.495 289.202C98.812 287.851 98.4521 286.226 98.4521 284.297H96.4521C96.4521 286.475 96.8592 288.421 97.7102 290.105L99.495 289.202ZM98.4521 284.297C98.4521 282.405 98.8108 280.791 99.4961 279.428L97.7092 278.529C96.8604 280.218 96.4521 282.149 96.4521 284.297H98.4521ZM99.4951 279.43C100.192 278.052 101.15 277.001 102.373 276.252L101.327 274.547C99.7709 275.501 98.5646 276.837 97.7102 278.528L99.4951 279.43ZM102.377 276.249C103.585 275.5 105.029 275.108 106.746 275.108V273.108C104.713 273.108 102.893 273.577 101.323 274.549L102.377 276.249ZM106.746 275.108C107.846 275.108 108.872 275.286 109.829 275.635L110.515 273.757C109.325 273.322 108.066 273.108 106.746 273.108V275.108ZM109.838 275.639C110.783 275.973 111.613 276.491 112.336 277.2L113.736 275.771C112.806 274.861 111.727 274.186 110.506 273.753L109.838 275.639ZM112.34 277.204C113.055 277.897 113.637 278.799 114.07 279.936L115.939 279.224C115.418 277.855 114.687 276.694 113.732 275.768L112.34 277.204ZM114.071 279.938C114.494 281.04 114.721 282.395 114.721 284.028H116.721C116.721 282.218 116.47 280.608 115.938 279.221L114.071 279.938ZM114.721 284.028V285.447H116.721V284.028H114.721ZM115.721 284.447H99.6254V286.447H115.721V284.447ZM100.625 285.447V282.328H98.6254V285.447H100.625ZM99.6254 283.328H111.284V281.328H99.6254V283.328ZM112.284 282.319C112.275 281.29 112.05 280.337 111.588 279.486L109.83 280.44C110.118 280.97 110.277 281.594 110.284 282.338L112.284 282.319ZM111.59 279.49C111.131 278.633 110.479 277.949 109.648 277.455L108.625 279.173C109.141 279.48 109.538 279.895 109.828 280.436L111.59 279.49ZM109.653 277.457C108.811 276.95 107.852 276.713 106.81 276.713V278.713C107.541 278.713 108.133 278.876 108.621 279.17L109.653 277.457ZM106.81 276.713C105.694 276.713 104.671 276.987 103.776 277.562L104.858 279.245C105.395 278.899 106.034 278.713 106.81 278.713V276.713ZM103.784 277.558C102.923 278.101 102.245 278.825 101.763 279.718L103.522 280.668C103.841 280.079 104.279 279.61 104.851 279.249L103.784 277.558ZM101.761 279.722C101.288 280.605 101.052 281.57 101.042 282.6L103.042 282.619C103.049 281.893 103.212 281.248 103.524 280.665L101.761 279.722ZM101.042 282.609V285.332H103.042V282.609H101.042ZM101.042 285.332C101.042 286.595 101.272 287.738 101.777 288.727L103.559 287.818C103.228 287.171 103.042 286.354 103.042 285.332H101.042ZM101.779 288.731C102.28 289.702 102.994 290.469 103.918 291.004L104.921 289.274C104.345 288.94 103.891 288.463 103.557 287.814L101.779 288.731ZM103.925 291.009C104.849 291.534 105.903 291.778 107.053 291.778V289.778C106.191 289.778 105.489 289.597 104.913 289.27L103.925 291.009ZM107.053 291.778C107.819 291.778 108.54 291.672 109.206 291.443L108.556 289.551C108.131 289.698 107.634 289.778 107.053 289.778V291.778ZM109.219 291.438C109.886 291.199 110.478 290.844 110.983 290.371L109.617 288.911C109.321 289.187 108.967 289.404 108.543 289.556L109.219 291.438ZM110.983 290.371C111.506 289.881 111.892 289.282 112.146 288.594L110.27 287.901C110.115 288.32 109.895 288.65 109.617 288.911L110.983 290.371ZM111.096 289.241L115.417 289.727L115.64 287.739L111.319 287.253L111.096 289.241ZM114.556 288.501C114.321 289.484 113.878 290.33 113.226 291.055L114.712 292.393C115.594 291.414 116.191 290.266 116.501 288.965L114.556 288.501ZM113.225 291.056C112.582 291.771 111.745 292.344 110.686 292.763L111.422 294.623C112.733 294.104 113.839 293.365 114.713 292.393L113.225 291.056ZM110.692 292.761C109.644 293.168 108.415 293.384 106.989 293.384V295.384C108.614 295.384 110.096 295.138 111.416 294.625L110.692 292.761ZM122.998 274.364L123.875 273.884L123.591 273.364H122.998V274.364ZM126.961 281.612L126.084 282.092L126.954 283.684L127.835 282.098L126.961 281.612ZM130.988 274.364V273.364H130.4L130.114 273.878L130.988 274.364ZM135.884 274.364L136.741 274.88L137.655 273.364H135.884V274.364ZM129.965 284.182L129.109 283.666L128.795 284.186L129.113 284.705L129.965 284.182ZM135.987 294V295H137.773L136.839 293.477L135.987 294ZM131.116 294L130.254 294.507L130.544 295H131.116V294ZM126.961 286.93L127.823 286.424L126.957 284.95L126.097 286.427L126.961 286.93ZM122.844 294V295H123.419L123.709 294.503L122.844 294ZM117.935 294L117.081 293.48L116.155 295H117.935V294ZM123.918 284.182L124.772 284.702L125.085 284.189L124.778 283.671L123.918 284.182ZM118.089 274.364V273.364H116.332L117.229 274.874L118.089 274.364ZM122.12 274.843L126.084 282.092L127.838 281.132L123.875 273.884L122.12 274.843ZM127.835 282.098L131.862 274.849L130.114 273.878L126.087 281.127L127.835 282.098ZM130.988 275.364H135.884V273.364H130.988V275.364ZM135.028 273.847L129.109 283.666L130.822 284.698L136.741 274.88L135.028 273.847ZM129.113 284.705L135.134 294.523L136.839 293.477L130.818 283.659L129.113 284.705ZM135.987 293H131.116V295H135.987V293ZM131.978 293.493L127.823 286.424L126.099 287.437L130.254 294.507L131.978 293.493ZM126.097 286.427L121.98 293.497L123.709 294.503L127.825 287.434L126.097 286.427ZM122.844 293H117.935V295H122.844V293ZM118.789 294.52L124.772 284.702L123.064 283.661L117.081 293.48L118.789 294.52ZM124.778 283.671L118.949 273.853L117.229 274.874L123.058 284.692L124.778 283.671ZM118.089 275.364H122.998V273.364H118.089V275.364ZM149.269 274.364H150.269V273.364H149.269V274.364ZM149.269 277.943V278.943H150.269V277.943H149.269ZM137.981 277.943H136.981V278.943H137.981V277.943ZM137.981 274.364V273.364H136.981V274.364H137.981ZM140.768 269.659V268.659H139.768V269.659H140.768ZM145.396 269.659H146.396V268.659H145.396V269.659ZM145.677 289.526L144.806 290.017L144.813 290.03L144.821 290.043L145.677 289.526ZM146.444 290.19L146.09 291.126L146.09 291.126L146.444 290.19ZM148.285 290.305L148.115 289.32L148.109 289.321L148.285 290.305ZM148.847 290.19L149.825 289.98L149.604 288.954L148.59 289.224L148.847 290.19ZM149.627 293.808L149.953 294.754L150.792 294.464L150.605 293.598L149.627 293.808ZM148.566 294.089L148.349 293.113L148.345 293.114L148.566 294.089ZM146.904 294.268L146.878 293.269L146.875 293.269L146.904 294.268ZM143.772 293.744L143.383 294.666L143.39 294.669L143.772 293.744ZM141.56 291.929L140.724 292.478L140.728 292.484L141.56 291.929ZM140.768 288.861L141.768 288.868V288.861H140.768ZM148.269 274.364V277.943H150.269V274.364H148.269ZM149.269 276.943H137.981V278.943H149.269V276.943ZM138.981 277.943V274.364H136.981V277.943H138.981ZM137.981 275.364H149.269V273.364H137.981V275.364ZM140.768 270.659H145.396V268.659H140.768V270.659ZM144.396 269.659V288.094H146.396V269.659H144.396ZM144.396 288.094C144.396 288.791 144.496 289.468 144.806 290.017L146.548 289.034C146.482 288.918 146.396 288.641 146.396 288.094H144.396ZM144.821 290.043C145.118 290.534 145.54 290.917 146.09 291.126L146.798 289.255C146.717 289.225 146.628 289.165 146.532 289.008L144.821 290.043ZM146.09 291.126C146.533 291.293 147.004 291.369 147.492 291.369V289.369C147.213 289.369 146.986 289.326 146.798 289.255L146.09 291.126ZM147.492 291.369C147.83 291.369 148.154 291.345 148.461 291.29L148.109 289.321C147.938 289.351 147.734 289.369 147.492 289.369V291.369ZM148.455 291.291C148.71 291.247 148.933 291.202 149.105 291.157L148.59 289.224C148.506 289.246 148.354 289.279 148.115 289.32L148.455 291.291ZM147.87 290.401L148.65 294.019L150.605 293.598L149.825 289.98L147.87 290.401ZM149.301 292.863C149.107 292.93 148.797 293.014 148.349 293.113L148.783 295.066C149.256 294.961 149.653 294.857 149.953 294.754L149.301 292.863ZM148.345 293.114C147.978 293.197 147.494 293.253 146.878 293.269L146.93 295.268C147.627 295.25 148.251 295.186 148.787 295.065L148.345 293.114ZM146.875 293.269C145.835 293.299 144.934 293.142 144.154 292.82L143.39 294.669C144.468 295.114 145.655 295.306 146.934 295.268L146.875 293.269ZM144.161 292.823C143.407 292.505 142.826 292.025 142.392 291.374L140.728 292.484C141.385 293.469 142.279 294.199 143.383 294.666L144.161 292.823ZM142.396 291.38C141.992 290.765 141.76 289.948 141.768 288.868L139.768 288.854C139.758 290.228 140.055 291.457 140.724 292.478L142.396 291.38ZM141.768 288.861V269.659H139.768V288.861H141.768Z"
                      fill="black"/>
            </g>
            <g id="percentage_4" style="mix-blend-mode:difference">
                <path d="M1052.98 267.818V294H1048.23V272.433H1048.08L1041.96 276.345V271.999L1048.46 267.818H1052.98ZM1069.3 294.499C1067.2 294.499 1065.39 293.966 1063.88 292.901C1062.38 291.827 1061.23 290.28 1060.42 288.26C1059.62 286.232 1059.21 283.79 1059.21 280.935C1059.22 278.08 1059.63 275.651 1060.43 273.648C1061.24 271.636 1062.39 270.102 1063.89 269.045C1065.4 267.989 1067.2 267.46 1069.3 267.46C1071.4 267.46 1073.2 267.989 1074.71 269.045C1076.22 270.102 1077.37 271.636 1078.17 273.648C1078.98 275.659 1079.39 278.088 1079.39 280.935C1079.39 283.798 1078.98 286.244 1078.17 288.273C1077.37 290.293 1076.22 291.835 1074.71 292.901C1073.21 293.966 1071.41 294.499 1069.3 294.499ZM1069.3 290.497C1070.94 290.497 1072.23 289.692 1073.17 288.081C1074.13 286.462 1074.61 284.08 1074.61 280.935C1074.61 278.855 1074.39 277.108 1073.95 275.693C1073.52 274.278 1072.91 273.213 1072.11 272.497C1071.32 271.773 1070.38 271.411 1069.3 271.411C1067.67 271.411 1066.39 272.22 1065.44 273.839C1064.49 275.45 1064.02 277.815 1064.01 280.935C1064 283.023 1064.21 284.778 1064.63 286.202C1065.07 287.625 1065.68 288.699 1066.48 289.423C1067.27 290.139 1068.21 290.497 1069.3 290.497ZM1097.63 289.091V287.71C1097.63 286.696 1097.85 285.763 1098.27 284.911C1098.71 284.058 1099.34 283.372 1100.17 282.852C1100.99 282.332 1101.99 282.072 1103.17 282.072C1104.38 282.072 1105.39 282.332 1106.21 282.852C1107.03 283.364 1107.65 284.045 1108.07 284.898C1108.49 285.75 1108.7 286.687 1108.7 287.71V289.091C1108.7 290.105 1108.49 291.038 1108.07 291.891C1107.64 292.743 1107.01 293.429 1106.19 293.949C1105.37 294.469 1104.36 294.729 1103.17 294.729C1101.98 294.729 1100.97 294.469 1100.14 293.949C1099.31 293.429 1098.69 292.743 1098.26 291.891C1097.84 291.038 1097.63 290.105 1097.63 289.091ZM1100.97 287.71V289.091C1100.97 289.764 1101.13 290.382 1101.46 290.945C1101.78 291.507 1102.35 291.788 1103.17 291.788C1104 291.788 1104.56 291.511 1104.87 290.957C1105.19 290.395 1105.34 289.773 1105.34 289.091V287.71C1105.34 287.028 1105.19 286.406 1104.9 285.844C1104.6 285.273 1104.02 284.987 1103.17 284.987C1102.37 284.987 1101.8 285.273 1101.47 285.844C1101.14 286.406 1100.97 287.028 1100.97 287.71ZM1084.33 274.108V272.727C1084.33 271.705 1084.54 270.767 1084.98 269.915C1085.41 269.062 1086.04 268.381 1086.87 267.869C1087.7 267.349 1088.7 267.089 1089.87 267.089C1091.08 267.089 1092.09 267.349 1092.9 267.869C1093.73 268.381 1094.35 269.062 1094.77 269.915C1095.19 270.767 1095.4 271.705 1095.4 272.727V274.108C1095.4 275.131 1095.18 276.068 1094.76 276.92C1094.34 277.764 1093.72 278.442 1092.89 278.953C1092.06 279.464 1091.06 279.72 1089.87 279.72C1088.67 279.72 1087.66 279.464 1086.83 278.953C1086.01 278.442 1085.39 277.76 1084.96 276.908C1084.54 276.055 1084.33 275.122 1084.33 274.108ZM1087.69 272.727V274.108C1087.69 274.79 1087.85 275.412 1088.16 275.974C1088.48 276.528 1089.06 276.805 1089.87 276.805C1090.69 276.805 1091.25 276.528 1091.56 275.974C1091.88 275.412 1092.03 274.79 1092.03 274.108V272.727C1092.03 272.045 1091.89 271.423 1091.59 270.861C1091.29 270.29 1090.72 270.004 1089.87 270.004C1089.06 270.004 1088.5 270.29 1088.17 270.861C1087.85 271.432 1087.69 272.054 1087.69 272.727ZM1085.78 294L1103.78 267.818H1106.98L1088.98 294H1085.78Z"
                      fill="white"/>
            </g>
        </g>
    </g>
    <defs>
        <filter id="filter0_d_0_1" x="72.4318" y="267.818" width="81.1953" height="34.5653" filterUnits="userSpaceOnUse"
                color-interpolation-filters="sRGB">
            <feFlood flood-opacity="0" result="BackgroundImageFix"/>
            <feColorMatrix in="SourceAlpha" type="matrix" values="0 0 0 0 0 0 0 0 0 0 0 0 0 0 0 0 0 0 127 0"
                           result="hardAlpha"/>
            <feOffset dy="4"/>
            <feGaussianBlur stdDeviation="2"/>
            <feComposite in2="hardAlpha" operator="out"/>
            <feColorMatrix type="matrix" values="0 0 0 0 0 0 0 0 0 0 0 0 0 0 0 0 0 0 0.25 0"/>
            <feBlend mode="normal" in2="BackgroundImageFix" result="effect1_dropShadow_0_1"/>
            <feBlend mode="normal" in="SourceGraphic" in2="effect1_dropShadow_0_1" result="shape"/>
        </filter>
    </defs>
</svg>
